<svg xmlns="http://www.w3.org/2000/svg" width="32" height="56" viewBox="0 0 32 56">
  <!-- Shadow -->
  <ellipse cx="16" cy="54" rx="10" ry="4" fill="rgba(0,0,0,0.3)"/>
  
  <!-- Legs (simple) -->
  <rect x="10" y="38" width="5" height="14" rx="2" fill="#6140ac"/>
  <rect x="17" y="38" width="5" height="14" rx="2" fill="#6140ac"/>
  
  <!-- Body (isometric-ish torso) -->
  <path d="M8 24 L16 20 L24 24 L24 40 L16 44 L8 40 Z" fill="#8B5CF6"/>
  <path d="M16 20 L16 44 L24 40 L24 24 Z" fill="#6140ac"/>
  <path d="M8 24 L16 20 L16 44 L8 40 Z" fill="#a27df8"/>
  
  <!-- Arms -->
  <ellipse cx="6" cy="30" rx="4" ry="6" fill="#8B5CF6"/>
  <ellipse cx="26" cy="30" rx="4" ry="6" fill="#6140ac"/>
  
  <!-- Head -->
  <circle cx="16" cy="12" r="10" fill="#fcd5b8"/>
  
  <!-- Face details -->
  <circle cx="13" cy="11" r="1.5" fill="#333"/>
  <circle cx="19" cy="11" r="1.5" fill="#333"/>
  <path d="M14 15 Q16 17 18 15" stroke="#333" stroke-width="1" fill="none"/>
  
  <!-- Hair (simple) -->
  <path d="M6 10 Q8 2 16 2 Q24 2 26 10 Q24 6 16 6 Q8 6 6 10" fill="#8B5CF6"/>
</svg>